<mxfile host="app.diagrams.net" modified="2023-04-11T05:47:30.128Z" agent="Mozilla/5.0 (Windows NT 10.0; WOW64) AppleWebKit/537.36 (KHTML, like Gecko) Chrome/92.0.4515.159 Safari/537.36" version="21.1.2" etag="kICMTi_n_IsFayaK6nVE" type="github">
  <diagram name="第 1 页" id="Ud9Jj6d3g1-VimuY6iWD">
    <mxGraphModel>
      <root>
        <mxCell id="0" />
        <mxCell id="1" parent="0" />
      </root>
    </mxGraphModel>
  </diagram>
</mxfile>
